<?xml version="1.0" standalone="no"?><!DOCTYPE svg PUBLIC "-//W3C//DTD SVG 1.1//EN" "http://www.w3.org/Graphics/SVG/1.1/DTD/svg11.dtd"><svg t="1522837689814" class="icon" style="" viewBox="0 0 1024 1024" version="1.1" xmlns="http://www.w3.org/2000/svg" p-id="1587" xmlns:xlink="http://www.w3.org/1999/xlink" width="200" height="200"><defs><style type="text/css"></style></defs><path d="M102.4 140.8s121.6 44.8 249.6 6.4C473.6 102.4 524.8 51.2 582.4 64c57.6 12.8 70.4 51.2 64 76.8-6.4 25.6-6.4 51.2-51.2 64-44.8 19.2-83.2-6.4-76.8-44.8 0 0 12.8 25.6 32 12.8s19.2-44.8-19.2-44.8c-51.2 25.6-102.4 44.8-153.6 57.6-76.8 19.2-198.4 12.8-275.2-44.8z m83.2 70.4S256 256 435.2 204.8c0 0 70.4-6.4 76.8 38.4 6.4 51.2-44.8 83.2-121.6 89.6-64 19.2-256 83.2-275.2 275.2 0 0-12.8 96 12.8 134.4 0 0-121.6-179.2 19.2-352 0 0 51.2-32 51.2-57.6 0-19.2-44.8 0-64 19.2C115.2 377.6 64 460.8 12.8 460.8c0 0 0 12.8 32-32 38.4-44.8 44.8-108.8 102.4-134.4 51.2-25.6 89.6-19.2 160-6.4 70.4 12.8 102.4-6.4 96-25.6 0-12.8-32-6.4-32-6.4s-121.6 19.2-185.6-44.8zM857.6 51.2c6.4 0 12.8 0 12.8 6.4 6.4 6.4 12.8 19.2-6.4 44.8-19.2 25.6-83.2 96-172.8 102.4-89.6 12.8-140.8 51.2-153.6 102.4-6.4 51.2 12.8 102.4 70.4 121.6 57.6 19.2 96 0 121.6 0 32 0 44.8 6.4 44.8 25.6 6.4 12.8 0 32-19.2 38.4 0 0 83.2-12.8 64-83.2 0 0 0-38.4-108.8-32-102.4 12.8-83.2-51.2-83.2-51.2s-6.4-51.2 76.8-76.8c83.2-25.6 217.6-70.4 230.4-153.6 6.4 0 6.4-76.8-76.8-44.8z m0 0" fill="#54c8ff" p-id="1588"></path><path d="M659.2 326.4s57.6-51.2 160-19.2c0 0 25.6 6.4 32-19.2 6.4-25.6-38.4-25.6-32 0 0 0-19.2-38.4 25.6-38.4s44.8 38.4 44.8 38.4 0 32-19.2 38.4c12.8 12.8 25.6 19.2 44.8 19.2 12.8 0 19.2 0 32-6.4 6.4 0 12.8-12.8 12.8-19.2 0-19.2-12.8-38.4-38.4-19.2-6.4 6.4-6.4 19.2-6.4 25.6 6.4 6.4-44.8-12.8 0-57.6 0 0 6.4-19.2-6.4-19.2-6.4 0-6.4 0-12.8 6.4v12.8c0 6.4-19.2-32 25.6-44.8 0 0 32 0 25.6 38.4 25.6 0 44.8 19.2 51.2 44.8 6.4 44.8-19.2 102.4-83.2 89.6 0 0-32-6.4-89.6-38.4-51.2-38.4-89.6-64-166.4-32z m-128 275.2c6.4-12.8 6.4-19.2 0-32-6.4-6.4-12.8-12.8-25.6-19.2-44.8-12.8-185.6-25.6-224 153.6-32 179.2 262.4 275.2 377.6 262.4 0 0-396.8 96-518.4-262.4 0 0-64-281.6 275.2-326.4 6.4-6.4 256 0 115.2 224z m0 0" fill="#54c8ff" p-id="1589"></path></svg>